<?xml version="1.0" encoding="UTF-8"?>
<svg id="Layer_1" data-name="Layer 1" xmlns="http://www.w3.org/2000/svg" version="1.1" viewBox="0 0 72 72">
  <defs>
    <style>
      .cls-1 {
        fill: #293a32;
        stroke-width: 0px;
      }
    </style>
  </defs>
  <path id="instagram-circle-icon" class="cls-1" d="M53.1,20.3v4.4c0,.7-.6,1.3-1.3,1.3h-4.3c-.7,0-1.3-.6-1.3-1.3v-4.4c0-.7.6-1.3,1.3-1.3h4.3c.7,0,1.3.6,1.3,1.3ZM36.5,42.1c3.3,0,5.9-2.6,5.9-5.9s-2.6-5.9-5.9-5.9-5.9,2.6-5.9,5.9,2.7,5.9,5.9,5.9ZM72,36c0,19.9-16.1,36-36,36S0,55.9,0,36,16.1,0,36,0s36,16.1,36,36ZM56.8,30.2h-11.9c1.2,1.7,1.9,3.8,1.9,6,0,5.7-4.6,10.4-10.4,10.4s-10.4-4.6-10.4-10.4.7-4.3,1.9-6h-11.6v18.2c0,4.4,3.6,8,8,8h24.5c4.4,0,8-3.6,8-8v-18.2ZM36.5,44.2c4.4,0,8-3.6,8-8s-1.1-4.5-2.7-6c-.6-.5-1.2-.9-2-1.3s-2.1-.7-3.3-.7-2.3.3-3.3.7c-.7.3-1.4.8-2,1.3-1.7,1.5-2.7,3.6-2.7,6,0,4.4,3.6,8,8,8ZM56.8,23.7c0-4.4-3.6-8-8-8h-21.9v10.1h-1.6v-10.1h-1.1v10.1h-1.6v-9.9c-.4.1-.8.2-1.2.4v9.5h-1.6v-8.6c-2,1.5-3.4,3.8-3.4,6.5v5.3h12.8c1.9-1.9,4.5-3.1,7.4-3.1s5.5,1.2,7.4,3.1h12.9v-5.3h-.1Z"/>
</svg>