<?xml version="1.0" encoding="UTF-8"?>
<svg id="Layer_1" data-name="Layer 1" xmlns="http://www.w3.org/2000/svg" version="1.1" viewBox="0 0 256 256">
  <defs>
    <style>
      .cls-1 {
        fill: #293a32;
        stroke-width: 0px;
      }
    </style>
  </defs>
  <path class="cls-1" d="M172.7,90.4c0-4-3.3-7.3-7.3-7.3s-7.3,3.3-7.3,7.3,3.3,7.3,7.3,7.3c4,0,7.3-3.3,7.3-7.3Z"/>
  <path class="cls-1" d="M127.9,94.4c-18.5,0-33.5,15-33.5,33.5s.9,9,2.6,13,4.1,7.6,7.2,10.6c6.1,6.1,14.4,9.8,23.7,9.8s17.6-3.7,23.7-9.8,5.5-6.6,7.2-10.6c1.7-4,2.6-8.4,2.6-13,0-18.5-15-33.5-33.5-33.5Z"/>
  <path class="cls-1" d="M127.9,1.4C58,1.4,1.4,58,1.4,127.9s56.6,126.4,126.4,126.4,126.4-56.6,126.4-126.4S197.7,1.4,127.9,1.4ZM198.1,156.6c0,22.9-18.6,41.5-41.5,41.5h-57.5c-22.9,0-41.5-18.6-41.5-41.5v-57.5c0-8.6,2.6-16.6,7.1-23.2,7.5-11,20.1-18.3,34.4-18.3h57.5c14.3,0,26.9,7.3,34.4,18.3,4.5,6.6,7.1,14.6,7.1,23.2v57.5Z"/>
</svg>