<?xml version="1.0" encoding="UTF-8"?>
<svg id="Layer_1" data-name="Layer 1" xmlns="http://www.w3.org/2000/svg" version="1.1" viewBox="0 0 72 72">
  <defs>
    <style>
      .cls-1 {
        fill: #293a32;
        stroke-width: 0px;
      }
    </style>
  </defs>
  <path id="pinterest-circle-icon" class="cls-1" d="M36,0C16.1,0,0,16.1,0,36s16.1,36,36,36,36-16.1,36-36S55.9,0,36,0ZM40.7,47.8c-2.8,0-5.5-1.5-6.4-3.2,0,0-1.5,6-1.8,7.2-1.1,4.1-4.4,8.2-4.7,8.5-.2.2-.6.2-.6,0-.1-.5-.9-5.7.1-9.9s3.4-14.2,3.4-14.2c0,0-.8-1.7-.8-4.1,0-3.9,2.2-6.7,5-6.7s3.5,1.8,3.5,3.9-1.5,5.9-2.3,9.2c-.7,2.8,1.4,5,4.1,5,4.9,0,8.3-6.3,8.3-13.9s-3.8-10-10.8-10-12.8,5.9-12.8,12.5.7,3.9,1.7,5.1.5.8.4,1.5c-.1.5-.4,1.6-.5,2.1-.2.7-.7.9-1.3.7-3.6-1.5-5.3-5.5-5.3-10,0-7.4,6.2-16.3,18.6-16.3s16.5,7.2,16.5,14.9c-.2,10.2-5.9,17.8-14.3,17.8Z"/>
</svg>