<?xml version="1.0" encoding="UTF-8"?>
<svg id="Layer_1" data-name="Layer 1" xmlns="http://www.w3.org/2000/svg" viewBox="0 0 242.23 242.23">
  <defs>
    <style>
      .cls-1 {
        fill: #293a32;
        stroke: #293a32;
        stroke-miterlimit: 10;
      }

      .cls-2 {
        fill: #fff;
        stroke-width: 0px;
      }
    </style>
  </defs>
  <circle class="cls-1" cx="121.11" cy="121.11" r="120.61"/>
  <g>
    <path class="cls-2" d="M137.67,72.18c-.11-6.18-.17-11.15-.3-16.12-.13-4.85-.04-9.64-1.08-14.53-1.02-4.79-.22-9.97-.22-14.52,2.74-7.48,7.35-12.75,15.2-13.1,7.65-.34,13.2,3.62,16.21,11.94,0,1.54-.26,4.18.08,6.73.32,2.36-.8,4.25-1.91,5.75-3.75,5.07-8.12,9.67-11.86,14.74-4.2,5.71-9.3,10.72-13.03,16.79-.49.79-1.57,1.21-3.09,2.32Z"/>
    <path class="cls-2" d="M167.39,206.47c2.06,16.98-7.88,22.65-18.94,21.88q-7.77-4.64-12.38-12.43c0-3.58-.17-7.28.05-10.96.22-3.75.99-7.47,1.21-11.22.22-3.69.05-7.4.05-11.11v-11.78c1.02.09,1.94-.08,2.15.23,3.79,5.75,8.86,10.49,12.6,16.31,2.15,3.35,5.23,6.1,7.75,9.23,2.6,3.23,5.04,6.58,7.52,9.85Z"/>
    <path class="cls-2" d="M106.7,21.77c2.92,6.98,2.64,13.63,1.64,19.77-1.6,9.84-.42,19.65-1.28,29.92-.87-.25-1.94-.22-2.22-.68-3.09-5.18-7.59-9.3-10.77-14.45-1.63-2.63-4.21-4.61-6.03-7.28-2.72-4.02-6.26-7.48-9.44-11.15-.47-2.17-1.14-4.35-1.39-6.58-.24-2.14-.05-4.33-.05-5.94.8-1.55,1.16-2.81,1.95-3.68,2.04-2.26,4.27-4.34,5.67-5.74,9.94-4.91,16.43-.57,21.91,5.81Z"/>
    <path class="cls-2" d="M69.4,121.73c-4.8,1.97-9.49,4.33-14.45,5.8-5.45,1.61-10.52,4.06-15.81,6-5.65,2.08-11.28,4.6-19.17,2.43-1.86-1.67-5.02-4.5-7.51-6.74-2.15-5.54-3.33-10.36-.94-15.43.97-.87,2.07-1.62,2.87-2.62,5.73-7.12,11.84-7.25,20.94-3.78,6.2,2.37,12.38,4.79,18.59,7.14,5.19,1.97,10.41,3.87,15.61,5.79-.05.47-.09.93-.14,1.4Z"/>
    <path class="cls-2" d="M195.98,49.1c1.31,0,2.63.14,3.91-.02,9.71-1.23,20.01,10.74,14.53,22.33-2,4.23-5.71,8.21-10.82,8.99-5.9.9-11.41,3.1-17.2,4.37-5.65,1.24-11.28,3.1-16.85,4.91-1.34.44-2.66.95-4,1.43-2.02-2.22.36-3.83,1.08-4.95,5.44-8.47,11.25-16.7,16.91-25.02.44-.65.51-1.56.96-2.2,2.88-4.05,5.76-8.12,11.47-9.83Z"/>
    <path class="cls-2" d="M232.85,128.4c-3.1,2.68-5.47,6.42-9.86,8.23-5.64.76-11.07-.45-16.51-3.19-5-2.51-10.56-3.89-15.86-5.83-5.2-1.91-10.36-3.9-16.49-6.21,2.84-2.09,5.1-2.52,7.33-3.31,7.21-2.52,14.29-5.42,21.41-8.21,2.62-1.03,5.2-2.17,7.82-3.2,1.31-.51,2.66-1.17,4.03-1.26,2.81-.2,5.64-.06,9.19-.06,2.76,2.53,5.87,5.4,8.86,8.14.52,2.64,1.36,5.05,1.37,7.47.01,2.43-.81,4.86-1.28,7.41Z"/>
    <path class="cls-2" d="M106.15,221.35c-2.31,1.72-5.98,4.45-9.97,7.43-3.44-.53-6.92-1.07-10.29-1.6q-8.72-8.42-8.72-18.63c2.76-5.64,6.71-10.38,10.67-15.21,5.45-6.64,10.4-13.69,16.29-19.96.8-.85-.02-3.63,3.14-2.09,0,4.41.33,9.17-.08,13.86-.61,7.11,1.82,13.94,1.42,21.01-.26,4.63.57,9.35-2.47,15.2Z"/>
    <path class="cls-2" d="M30.97,56.57c2.15-2,5.25-4.88,8.04-7.47,2.44,0,4.16-.04,5.88,0,6.56.18,11.18,3.19,14.52,8.94,3.8,6.54,8.21,12.72,12.37,19.04,2.65,4.02,5.33,8.03,8.16,12.28-5.59,1.18-10.29-1.07-14.84-2.52-5.58-1.77-11.29-3.38-16.9-4.75-7.2-1.76-13.55-3.96-17.32-9.26-2.75-5.61-2.76-10.46.07-16.27Z"/>
    <path class="cls-2" d="M164.95,152.76c5.43-1.19,10.2,1.42,15.07,2.63,6.08,1.51,12.01,3.64,18.16,5.02,5.92,1.32,11.77,3.24,15.28,8.71,2.28,3.56,3.31,7.61,2.06,11.88-1.72,5.88-4.49,8.95-9.98,11.33-.37.16-.67.7-1,.7-2.83.06-5.66.03-8.37.03-1.02-.47-2.01-.78-2.84-1.33-2.5-1.68-4.86-3.11-6.67-6.03-6.15-9.96-13.07-19.45-19.66-29.14-.76-1.12-1.3-2.4-2.05-3.8Z"/>
    <path class="cls-2" d="M28.75,174.62c2.16-4.61,4.4-8.65,8.63-11.37,4.34-1.34,8.9-3.12,13.63-4.11,4.8-1,9.33-3.27,14.05-3.79,4.9-.53,9.19-4.37,14.74-2.44-4.25,6.52-8.42,12.96-12.62,19.38-2.58,3.94-5.5,7.69-7.77,11.81-3.65,6.61-9.14,9.34-16.46,8.97-.87-.04-1.74,0-3.52,0-2.65-2.3-5.82-5.04-8.58-7.43-1.92-4.03-2.4-7.72-2.09-11.02Z"/>
    <path class="cls-2" d="M119.72,169.5c2.11.41,4.27-.52,6.58,1.16,2.99,2.18,5.73,5.61,4.43,8.48-2.83,6.26-4.82,12.79-7.18,19.2-.18.49-.85.81-1.64,1.52-2.41-6.66-4.77-13.07-7.05-19.5-1.88-5.31-1.18-7,3.82-9.84.36-.21.62-.6,1.04-1.02Z"/>
    <path class="cls-2" d="M119.52,72.66c-1.44-1.29-3.02-2.52-4.38-3.96-2.88-3.05-.92-6.38.08-9.29,1.97-5.68,4.54-11.16,7.16-17.43,2.83,7.2,5.56,13.79,8,20.49,1.65,4.52-1.4,9.37-6.21,10.16-1.47.24-3.02.04-4.66.04Z"/>
    <path class="cls-2" d="M47.49,96.22c5.45,0,9.55.02,13.65-.01,1.27,0,3.01.36,3.74-.31,2.79-2.57,5.37-.66,7.5.45,2.79,1.46,4.51,4.24,4.79,7.61.05.65,0,1.3,0,1.79-1.06,1.41-2.04,2.71-3.02,4.01-2.16,2.76-7.98,2.88-11.17.38-2.64-2.08-5.16-4.31-7.78-6.43-1.78-1.43-3.69-2.7-5.42-4.19-.73-.63-1.15-1.62-2.29-3.31Z"/>
    <path class="cls-2" d="M197.58,145.95c-5.19,0-8.84-.2-12.46.06-3.5.25-6.96.98-9.22,1.32-4.98-1.62-7.25-4.38-8.48-8.32.3-3.78,3.25-6,5.74-8.55,4.58-1.01,7.79,1.15,11.21,4.02,3.3,2.78,6.3,6.04,10.3,7.99.82.4,1.29,1.5,2.9,3.48Z"/>
    <path class="cls-2" d="M66.14,130.3h5.19c1.78,1.91,3.7,3.96,5.8,6.21-.23,8.09-5.45,12.06-13.35,9.84-1.19-.34-2.49-.36-3.75-.38-3.84-.05-7.69-.02-11.38-.02-.18-.7-.25-.89-.28-1.09-.03-.21-.1-.55,0-.63,5.86-4.62,11.73-9.22,17.75-13.93Z"/>
    <path class="cls-2" d="M172.52,111.52c-1.65-2.27-3.58-4.93-5.15-7.09.74-6.25,4.7-8.16,8.86-9.28,6.65,2.31,13.37.23,19.97,1.38-.05.7.14,1.56-.17,1.82-4.81,4.05-9.57,8.16-14.59,11.93-2.16,1.62-4.94,2.18-8.91,1.24Z"/>
    <path class="cls-2" d="M81.89,162.83c.84-.84,2.22-2.22,4.08-4.08,2.82.41,6.05.87,9.7,1.4.54,3.66,1.02,6.88,1.4,9.46-5.21,6.78-12.48,9.55-18.29,14.25-.51.41-1.63.05-2.96.05,1.96-6.83,3.84-13.35,6.07-21.08Z"/>
    <path class="cls-2" d="M147.85,71.84c5.92-5.66,13.08-9.67,21.11-14.56-1.74,7.94-4.12,14.53-5.46,21.01-1.63,1.77-3.1,3.35-4.81,5.2-2.96-.44-6.02-.89-8.56-1.26-2.84-3.42-2.23-6.88-2.28-10.38Z"/>
    <path class="cls-2" d="M148.92,160.12c3.77-.55,6.83-1,9.49-1.39,4.43,3.23,5.67,7.33,6.69,12.05.9,4.19,3.05,8.1,2.11,13.26-6.55-4.79-14.11-7.64-19.67-14.28.39-2.74.83-5.81,1.38-9.64Z"/>
    <path class="cls-2" d="M76.76,58.33c8.18,4.23,14.92,7.74,20.03,13.73v6.03c-.65,1.28-1.11,2.18-1.68,3.31-.8.41-1.88.96-3.32,1.71h-6.13c-1.49-1.51-3.01-3.06-4.56-4.64.26-3.38-1.4-6.25-2.51-9.34-1.02-2.84-1.08-6.03-1.83-10.8Z"/>
    <path class="cls-2" d="M142.61,145.3c-1.52,1.51-3.06,3.04-4.61,4.57h-5.21c-1.51-1.52-3.04-3.06-4.57-4.61v-5.21c1.52-1.51,3.06-3.04,4.61-4.57h5.21c1.51,1.52,3.04,3.06,4.57,4.61v5.21Z"/>
    <path class="cls-2" d="M111.56,92.31c1.8,1.66,3.38,3.13,5.24,4.86-.51,2.53-1.04,5.15-1.51,7.46-2.82,2.19-5.74,2.2-9.2,1.98-1.39-2.12-2.95-4.51-4.28-6.55,1.53-5.79,4.71-8.3,9.75-7.76Z"/>
    <path class="cls-2" d="M132.8,92.29h5.51c1.38,1.93,3.01,4.21,4.41,6.17-.27,4.01-2.51,6.17-4.71,8.23h-4.5c-1.56-1.66-3.02-3.21-5.13-5.44v-4.53c1.34-1.34,2.73-2.73,4.42-4.42Z"/>
    <path class="cls-2" d="M114.73,137.21c2.22,3.59,2.52,7.13-.19,11-1.79.9-3.98,2.35-6.98,1.38-3.47-1.12-4.47-3.9-5.81-6.77,1.17-2.74,2.04-5.05,5.12-6.57,3.07-1.52,5.16-.34,7.86.96Z"/>
    <path class="cls-2" d="M128.22,116.5c2.3,5.92,1.93,8.48-4.73,12.45-1.9-.63-3.81-1.26-6.36-2.1-.76-2.11-1.64-4.57-2.37-6.61,2.04-1.92,3.59-3.38,6.23-5.87,1.6-.4,4.5.37,7.22,2.14Z"/>
    <path class="cls-2" d="M90.3,124.74v-6.84c1.15-1.2,2.19-2.3,3.18-3.34h6.61c1.1,1.1,2.18,2.18,3.25,3.25,0,2.18,0,4.36,0,6.95-2,1.4-4.2,2.93-6.58,4.6-2.38-1.7-4.55-3.26-6.47-4.62Z"/>
    <path class="cls-2" d="M156.16,121.12c-1.82,2.55-3.27,4.58-4.62,6.47h-7.08c-.88-1-1.87-2.14-3.1-3.54v-6.41c.96-.78,2.14-1.74,3.71-3.03h6.41c1.32,1.83,2.87,3.99,4.67,6.5Z"/>
    <path class="cls-2" d="M76.3,58.26v-1.31h.44v1.31h-.44Z"/>
  </g>
</svg>